<?xml version="1.0" encoding="utf-8"?>
<!-- Generator: Adobe Illustrator 23.0.1, SVG Export Plug-In . SVG Version: 6.00 Build 0)  -->
<svg version="1.1" id="Layer_1" xmlns="http://www.w3.org/2000/svg" xmlns:xlink="http://www.w3.org/1999/xlink" x="0px" y="0px"
	 viewBox="0 0 132 132" style="enable-background:new 0 0 132 132;" xml:space="preserve">
<g>
	<path d="M35.2,78.7c0.7-0.5,1-1.3,0.9-2.1l-1.6-11.1l7.8-7.7c0.6-0.6,0.8-1.4,0.5-2.1c-0.2-0.8-0.9-1.3-1.7-1.5l-10.5-1.8L26,42.2
		c-0.3-0.7-1.1-1.2-1.9-1.2c-0.8,0-1.6,0.4-1.9,1.2l-4.9,10L6.7,53.5c-0.8,0.1-1.4,0.6-1.7,1.4c-0.3,0.7-0.1,1.6,0.5,2.2l7.6,8
		l-2,11.1c-0.1,0.8,0.2,1.6,0.8,2.1c0.7,0.5,1.5,0.5,2.2,0.2l9.5-5l9.3,5.4C33.6,79.2,34.5,79.1,35.2,78.7z M24.7,69.2
		c-0.6-0.4-1.4-0.4-2,0l-6.7,3.5l1.4-7.9c0.1-0.7-0.1-1.3-0.5-1.8l-5.5-5.8l7.6-1c0.7-0.1,1.3-0.5,1.6-1.2l3.4-7l3.2,7.1
		c0.3,0.6,0.9,1.1,1.6,1.2l7.6,1.3l-5.7,5.6c-0.5,0.5-0.7,1.1-0.6,1.8l1.2,7.9L24.7,69.2z"/>
	<path d="M56.3,22.5l-1.1,6.6c-0.1,0.8,0.2,1.6,0.9,2.1c0.7,0.5,1.5,0.5,2.2,0.1l5.5-3l5.5,3.1c0.7,0.4,1.6,0.3,2.2-0.1
		c0.7-0.5,1-1.3,0.9-2.1l-1.1-6.6l4.6-4.6c0.6-0.6,0.7-1.4,0.5-2.1c-0.2-0.8-0.9-1.3-1.7-1.4l-6.2-1l-2.8-5.9
		c-0.3-0.7-1.1-1.2-1.9-1.2h0c-0.8,0-1.6,0.5-1.9,1.2l-2.8,5.9L53,14.3c-0.8,0.1-1.4,0.7-1.7,1.4c-0.3,0.8-0.1,1.6,0.5,2.1
		L56.3,22.5z M61,17.4c0.7-0.1,1.3-0.5,1.6-1.2l1.4-2.9l1.3,2.9c0.3,0.6,0.9,1.1,1.6,1.2l3.2,0.5l-2.4,2.5c-0.5,0.5-0.7,1.2-0.6,1.8
		l0.5,3.3L64.9,24c-0.6-0.4-1.4-0.4-2,0l-2.7,1.5l0.6-3.3c0.1-0.7-0.1-1.3-0.6-1.8l-2.4-2.5L61,17.4z"/>
	<path d="M111.1,37.4c-4.5-4.6-9.9-8.2-15.9-10.7c-0.8-0.3-1.7-0.2-2.3,0.5c-0.6,0.6-0.8,1.5-0.4,2.3c7.5,17.5,3.6,37.8-9.8,51.2
		C69.2,94.1,48.9,98,31.4,90.5c-0.8-0.3-1.7-0.2-2.3,0.4c-0.6,0.6-0.8,1.5-0.5,2.3c6.6,15.5,20.5,26.6,37,29.8s33.5-2,45.4-13.9
		C130.9,89.3,130.9,57.2,111.1,37.4z M108.1,106.2c-10.3,10.3-24.7,15.1-39.1,13.2c-14.4-1.9-27-10.5-34.2-23.1
		c18,5.5,37.5,0.7,50.8-12.6c13.3-13.3,18.1-32.8,12.6-50.8c12.6,7.2,21.1,19.8,23.1,34.2C123.3,81.4,118.4,95.9,108.1,106.2z"/>
</g>
</svg>
