<svg xmlns="http://www.w3.org/2000/svg" viewBox="0 0 139.82 139.82"><title>Asset 8</title><g id="Layer_2" data-name="Layer 2"><g id="Vrstva_1" data-name="Vrstva 1"><path d="M69.91,104.46a34.55,34.55,0,1,1,34.55-34.55A34.59,34.59,0,0,1,69.91,104.46Zm0-62.86A28.31,28.31,0,1,0,98.22,69.91,28.34,28.34,0,0,0,69.91,41.6Z"/><path d="M69.91,23.27a3.12,3.12,0,0,1-3.12-3.12v-17a3.12,3.12,0,0,1,6.24,0v17A3.12,3.12,0,0,1,69.91,23.27Z"/><path d="M105.1,37.85a3.13,3.13,0,0,1-2.2-5.33l12-12a3.12,3.12,0,0,1,4.41,4.41l-12,12A3.12,3.12,0,0,1,105.1,37.85Z"/><path d="M136.7,73h-17a3.13,3.13,0,1,1,0-6.25h17a3.13,3.13,0,0,1,0,6.25Z"/><path d="M117.14,120.26a3.11,3.11,0,0,1-2.21-.91l-12-12a3.12,3.12,0,0,1,4.41-4.41l12,12a3.11,3.11,0,0,1,0,4.42A3.07,3.07,0,0,1,117.14,120.26Z"/><path d="M69.91,139.82h0a3.12,3.12,0,0,1-3.12-3.12v-17a3.12,3.12,0,0,1,3.12-3.12h0A3.12,3.12,0,0,1,73,119.68v17A3.11,3.11,0,0,1,69.91,139.82Z"/><path d="M22.68,120.26a3.12,3.12,0,0,1-2.21-5.33l12-12a3.12,3.12,0,0,1,4.42,4.41l-12,12A3.15,3.15,0,0,1,22.68,120.26Z"/><path d="M20.14,73h-17a3.12,3.12,0,0,1,0-6.24h17a3.12,3.12,0,1,1,0,6.24Z"/><path d="M34.72,37.85a3.12,3.12,0,0,1-2.21-.92l-12-12a3.12,3.12,0,0,1,4.41-4.41l12,12a3.13,3.13,0,0,1-2.21,5.33Z"/></g></g></svg>