<svg xmlns="http://www.w3.org/2000/svg" viewBox="0 0 126.34 127.83"><title>Asset 12</title><g id="Layer_2" data-name="Layer 2"><g id="Vrstva_1" data-name="Vrstva 1"><path d="M27.67,45.37a3.12,3.12,0,0,1-3.08-2.66A37.19,37.19,0,0,1,92.31,16.54,3.12,3.12,0,1,1,87.12,20,31,31,0,0,0,30.76,41.78a3.11,3.11,0,0,1-2.62,3.55A2.56,2.56,0,0,1,27.67,45.37Z"/><path d="M98.4,70.86H20.27a20.28,20.28,0,1,1,8.4-38.73,3.12,3.12,0,1,1-2.59,5.68,14,14,0,1,0-5.81,26.8H98.4a21.69,21.69,0,1,0-18-33.81,3.12,3.12,0,1,1-5.17-3.5A27.94,27.94,0,1,1,98.4,70.86Z"/><polygon points="57.31 82.1 51.09 104.96 61.23 104.98 54.84 127.83 76.85 95.83 64.29 95.76 68.94 82.02 57.31 82.1"/></g></g></svg>