<svg xmlns="http://www.w3.org/2000/svg" viewBox="0 0 137.91 95.33"><title>Asset 5</title><g id="Layer_2" data-name="Layer 2"><g id="Vrstva_1" data-name="Vrstva 1"><path d="M119.35,37.12H16.41a3.13,3.13,0,1,1,0-6.25H119.35A12.31,12.31,0,1,0,110.49,10,3.12,3.12,0,1,1,106,5.66a18.56,18.56,0,1,1,13.35,31.46Z"/><path d="M119.35,95.33A18.45,18.45,0,0,1,106,89.68a3.13,3.13,0,0,1,4.49-4.35,12.31,12.31,0,1,0,8.86-20.87H34a3.12,3.12,0,0,1,0-6.24h85.35a18.56,18.56,0,1,1,0,37.11Z"/><path d="M106.16,50.79H3.12a3.12,3.12,0,0,1,0-6.24h103a3.12,3.12,0,1,1,0,6.24Z"/></g></g></svg>