<svg xmlns="http://www.w3.org/2000/svg" viewBox="0 0 95.18 106.63"><title>Asset 9</title><g id="Layer_2" data-name="Layer 2"><g id="Vrstva_1" data-name="Vrstva 1"><path d="M47.59,56.43a3.11,3.11,0,0,1-3.12-3.12V3.12a3.12,3.12,0,1,1,6.24,0V53.31A3.12,3.12,0,0,1,47.59,56.43Z"/><path d="M46.87,26.89a3.11,3.11,0,0,1-2-.75l-15-12.73a3.12,3.12,0,1,1,4-4.75l15,12.73a3.12,3.12,0,0,1-2,5.5Z"/><path d="M48.31,26.89a3.12,3.12,0,0,1-2-5.5l15-12.73a3.12,3.12,0,1,1,4,4.75l-15,12.73A3.13,3.13,0,0,1,48.31,26.89Z"/><path d="M47.59,56.43A3.14,3.14,0,0,1,46,56L2.56,30.92a3.12,3.12,0,1,1,3.13-5.4L49.15,50.61a3.12,3.12,0,0,1-1.56,5.82Z"/><path d="M3.12,48.9a3.12,3.12,0,0,1-1.05-6.06l18.52-6.62a3.12,3.12,0,0,1,2.1,5.88L4.17,48.72A3.18,3.18,0,0,1,3.12,48.9Z"/><path d="M22.36,41a3.13,3.13,0,0,1-3.07-2.56L15.76,19.13A3.13,3.13,0,0,1,21.91,18l3.52,19.34A3.13,3.13,0,0,1,22.92,41,3.64,3.64,0,0,1,22.36,41Z"/><path d="M4.13,81.53A3.13,3.13,0,0,1,2.56,75.7L46,50.61A3.12,3.12,0,0,1,49.15,56L5.69,81.11A3.15,3.15,0,0,1,4.13,81.53Z"/><path d="M18.84,91.18a3.66,3.66,0,0,1-.57-.05,3.13,3.13,0,0,1-2.51-3.63l3.53-19.35a3.12,3.12,0,0,1,6.14,1.12L21.91,88.62A3.13,3.13,0,0,1,18.84,91.18Z"/><path d="M21.64,70.59a3.24,3.24,0,0,1-1.05-.19L2.07,63.79a3.12,3.12,0,1,1,2.1-5.88l18.52,6.61a3.13,3.13,0,0,1-1.05,6.07Z"/><path d="M47.59,106.63a3.12,3.12,0,0,1-3.12-3.13V53.31a3.12,3.12,0,1,1,6.24,0V103.5A3.13,3.13,0,0,1,47.59,106.63Z"/><path d="M63.3,98.71a3.1,3.1,0,0,1-2-.74l-15-12.73a3.12,3.12,0,0,1,4-4.76l15,12.73a3.12,3.12,0,0,1-2,5.5Z"/><path d="M31.88,98.71a3.12,3.12,0,0,1-2-5.5l15-12.73a3.12,3.12,0,0,1,4,4.76L33.9,98A3.1,3.1,0,0,1,31.88,98.71Z"/><path d="M91.05,81.53a3.11,3.11,0,0,1-1.55-.42L46,56a3.12,3.12,0,0,1,3.12-5.41L92.62,75.7a3.13,3.13,0,0,1-1.57,5.83Z"/><path d="M73.54,70.59a3.13,3.13,0,0,1-1.05-6.07L91,57.91a3.12,3.12,0,0,1,2.11,5.88L74.59,70.4A3.28,3.28,0,0,1,73.54,70.59Z"/><path d="M76.34,91.18a3.13,3.13,0,0,1-3.07-2.56L69.75,69.27a3.12,3.12,0,0,1,6.14-1.12L79.42,87.5a3.13,3.13,0,0,1-2.51,3.63A3.66,3.66,0,0,1,76.34,91.18Z"/><path d="M47.59,56.43A3.12,3.12,0,0,1,46,50.61L89.5,25.52a3.12,3.12,0,0,1,3.12,5.4L49.15,56A3.14,3.14,0,0,1,47.59,56.43Z"/><path d="M72.82,41a3.64,3.64,0,0,1-.56,0,3.13,3.13,0,0,1-2.51-3.64L73.27,18a3.13,3.13,0,0,1,6.15,1.12L75.89,38.48A3.13,3.13,0,0,1,72.82,41Z"/><path d="M92.06,48.9A3.28,3.28,0,0,1,91,48.72L72.49,42.1a3.12,3.12,0,0,1,2.1-5.88l18.52,6.62a3.12,3.12,0,0,1-1,6.06Z"/></g></g></svg>