<svg xmlns="http://www.w3.org/2000/svg" viewBox="0 0 128.38 129.96"><title>Asset 13</title><g id="Layer_2" data-name="Layer 2"><g id="Vrstva_1" data-name="Vrstva 1"><path d="M28.09,46.06A3.12,3.12,0,0,1,25,43.4a37.93,37.93,0,0,1,16.39-37A37.76,37.76,0,0,1,93.78,16.82a3.13,3.13,0,0,1-5.2,3.47,31.52,31.52,0,0,0-43.71-8.74A31.68,31.68,0,0,0,31.18,42.47,3.11,3.11,0,0,1,28.56,46,2.56,2.56,0,0,1,28.09,46.06Z"/><path d="M100,72H20.56a20.57,20.57,0,1,1,8.53-39.29,3.13,3.13,0,0,1-2.59,5.69,14.12,14.12,0,0,0-5.94-1.29,14.32,14.32,0,0,0,0,28.64H100A22.11,22.11,0,1,0,81.68,31.26a3.12,3.12,0,1,1-5.17-3.5A28.36,28.36,0,1,1,100,72Z"/><path d="M58.87,102.29a2.72,2.72,0,0,1-.69-.09A2.62,2.62,0,0,1,56.35,99l3.58-13.16A2.62,2.62,0,1,1,65,87.19l-3.59,13.17A2.61,2.61,0,0,1,58.87,102.29Z"/><path d="M52,127.55a2.42,2.42,0,0,1-.7-.1,2.61,2.61,0,0,1-1.82-3.22l3.57-12.94a2.62,2.62,0,0,1,5.05,1.4l-3.58,12.94A2.61,2.61,0,0,1,52,127.55Z"/><path d="M32.65,108.33a2.61,2.61,0,0,1-2.52-3.3l5.22-19.21a2.62,2.62,0,1,1,5,1.37L35.18,106.4A2.61,2.61,0,0,1,32.65,108.33Z"/><polygon points="82.57 83.45 76.25 106.71 86.55 106.73 80.05 129.96 102.44 97.43 89.67 97.36 94.4 83.38 82.57 83.45"/></g></g></svg>