<svg xmlns="http://www.w3.org/2000/svg" viewBox="0 0 127.12 129.41"><title>Asset 15</title><g id="Layer_2" data-name="Layer 2"><g id="Vrstva_1" data-name="Vrstva 1"><path d="M64.19,105.91h-15a1.27,1.27,0,0,1,0-2.54h15a1.27,1.27,0,0,1,0,2.54Z"/><path d="M62,111.22a1.29,1.29,0,0,1-.9-.36L50.46,100.22a1.26,1.26,0,0,1,0-1.79,1.27,1.27,0,0,1,1.79,0l10.63,10.64a1.26,1.26,0,0,1,0,1.79A1.28,1.28,0,0,1,62,111.22Z"/><path d="M56.67,113.43a1.27,1.27,0,0,1-1.27-1.27v-15a1.27,1.27,0,0,1,2.54,0v15A1.27,1.27,0,0,1,56.67,113.43Z"/><path d="M51.35,111.22a1.26,1.26,0,0,1-.89-2.15L61.09,98.43a1.27,1.27,0,0,1,1.79,0,1.26,1.26,0,0,1,0,1.79L52.25,110.86A1.29,1.29,0,0,1,51.35,111.22Z"/><path d="M93.68,86.9h-15a1.27,1.27,0,0,1,0-2.54h15a1.27,1.27,0,0,1,0,2.54Z"/><path d="M91.48,92.21a1.23,1.23,0,0,1-.89-.37L80,81.21a1.27,1.27,0,0,1,0-1.79,1.26,1.26,0,0,1,1.79,0L92.37,90.05a1.26,1.26,0,0,1,0,1.79A1.23,1.23,0,0,1,91.48,92.21Z"/><path d="M86.16,94.41a1.26,1.26,0,0,1-1.26-1.26v-15a1.27,1.27,0,1,1,2.53,0v15A1.26,1.26,0,0,1,86.16,94.41Z"/><path d="M80.85,92.21a1.26,1.26,0,0,1-.9-.37,1.27,1.27,0,0,1,0-1.79L90.59,79.42a1.26,1.26,0,0,1,1.79,0,1.27,1.27,0,0,1,0,1.79L81.74,91.84A1.25,1.25,0,0,1,80.85,92.21Z"/><path d="M66.77,86.46H56.93a.83.83,0,0,1,0-1.66h9.84a.83.83,0,1,1,0,1.66Z"/><path d="M65.33,89.94a.82.82,0,0,1-.58-.24l-7-7A.83.83,0,0,1,59,81.56l7,7a.83.83,0,0,1,0,1.18A.82.82,0,0,1,65.33,89.94Z"/><path d="M61.85,91.38a.83.83,0,0,1-.83-.83V80.71a.83.83,0,0,1,1.66,0v9.84A.83.83,0,0,1,61.85,91.38Z"/><path d="M58.37,89.94a.83.83,0,0,1-.59-1.42l7-7a.82.82,0,0,1,1.16,1.17l-7,7A.82.82,0,0,1,58.37,89.94Z"/><path d="M85.92,105.47H76.08a.83.83,0,0,1,0-1.66h9.84a.83.83,0,0,1,0,1.66Z"/><path d="M84.48,109a.84.84,0,0,1-.59-.24l-7-7a.83.83,0,0,1,0-1.17.82.82,0,0,1,1.17,0l7,7a.83.83,0,0,1-.58,1.41Z"/><path d="M81,110.39a.83.83,0,0,1-.83-.82V99.72a.83.83,0,0,1,.83-.83.82.82,0,0,1,.82.83v9.85A.82.82,0,0,1,81,110.39Z"/><path d="M77.52,109a.83.83,0,0,1-.59-1.41l7-7a.83.83,0,0,1,1.18,1.17l-7,7A.82.82,0,0,1,77.52,109Z"/><path d="M56.43,124.49H46.58a.83.83,0,1,1,0-1.66h9.85a.83.83,0,0,1,0,1.66Z"/><path d="M55,128a.78.78,0,0,1-.58-.24l-7-7a.82.82,0,0,1,0-1.17.83.83,0,0,1,1.17,0l7,7a.83.83,0,0,1,0,1.17A.8.8,0,0,1,55,128Z"/><path d="M51.5,129.41a.83.83,0,0,1-.83-.83v-9.84a.83.83,0,1,1,1.66,0v9.84A.83.83,0,0,1,51.5,129.41Z"/><path d="M48,128a.78.78,0,0,1-.58-.24.82.82,0,0,1,0-1.17l7-7a.83.83,0,0,1,1.17,1.17l-7,7A.78.78,0,0,1,48,128Z"/><path d="M37.28,105.47H27.43a.83.83,0,0,1,0-1.66h9.85a.83.83,0,0,1,0,1.66Z"/><path d="M35.83,109a.82.82,0,0,1-.58-.24l-7-7a.83.83,0,0,1,0-1.17.82.82,0,0,1,1.17,0l7,7a.83.83,0,0,1,0,1.17A.82.82,0,0,1,35.83,109Z"/><path d="M32.36,110.39a.83.83,0,0,1-.83-.82V99.72a.83.83,0,1,1,1.65,0v9.85A.82.82,0,0,1,32.36,110.39Z"/><path d="M28.87,109a.82.82,0,0,1-.58-.24.83.83,0,0,1,0-1.17l7-7a.82.82,0,0,1,1.17,0,.83.83,0,0,1,0,1.17l-7,7A.84.84,0,0,1,28.87,109Z"/><path d="M45,86.9H30a1.27,1.27,0,0,1,0-2.54H45a1.27,1.27,0,1,1,0,2.54Z"/><path d="M42.84,92.21a1.26,1.26,0,0,1-.9-.37L31.31,81.21a1.27,1.27,0,1,1,1.79-1.79L43.73,90.05a1.26,1.26,0,0,1,0,1.79A1.23,1.23,0,0,1,42.84,92.21Z"/><path d="M37.52,94.41a1.25,1.25,0,0,1-1.26-1.26v-15a1.27,1.27,0,1,1,2.53,0v15A1.26,1.26,0,0,1,37.52,94.41Z"/><path d="M32.2,92.21a1.27,1.27,0,0,1-.89-2.16L41.94,79.42a1.27,1.27,0,0,1,1.79,1.79L33.1,91.84A1.26,1.26,0,0,1,32.2,92.21Z"/><path d="M27.83,45.62A3.12,3.12,0,0,1,24.75,43,37.42,37.42,0,0,1,92.88,16.64a3.13,3.13,0,0,1-5.2,3.47A31.17,31.17,0,0,0,30.92,42a3.11,3.11,0,0,1-2.62,3.55A3.71,3.71,0,0,1,27.83,45.62Z"/><path d="M99,71.28H20.39a20.39,20.39,0,1,1,0-40.77,20.18,20.18,0,0,1,8.45,1.83A3.12,3.12,0,0,1,26.25,38a14.14,14.14,0,1,0-5.86,27H99A21.86,21.86,0,1,0,80.9,31a3.12,3.12,0,1,1-5.17-3.5A28.1,28.1,0,1,1,99,71.28Z"/></g></g></svg>