<svg xmlns="http://www.w3.org/2000/svg" viewBox="0 0 160.87 100.11"><title>Asset 6</title><g id="Layer_2" data-name="Layer 2"><g id="Vrstva_1" data-name="Vrstva 1"><path d="M62.59,74.72a3.13,3.13,0,0,1-3.09-2.66A37.06,37.06,0,0,1,127,46a3.12,3.12,0,1,1-5.19,3.47A30.82,30.82,0,0,0,65.68,71.13a3.12,3.12,0,0,1-2.63,3.55A3.57,3.57,0,0,1,62.59,74.72Z"/><path d="M133,100.11H55.22a20.21,20.21,0,1,1,0-40.41,20,20,0,0,1,8.37,1.81A3.12,3.12,0,1,1,61,67.19a13.82,13.82,0,0,0-5.78-1.25,14,14,0,1,0,0,27.92H133A21.6,21.6,0,1,0,115.13,60.2,3.13,3.13,0,0,1,110,56.7,27.84,27.84,0,1,1,133,100.11Z"/><path d="M51,18.46a3.13,3.13,0,0,1-3.13-3.12V3.12a3.13,3.13,0,0,1,6.25,0V15.34A3.12,3.12,0,0,1,51,18.46Z"/><path d="M76.28,28.92a3.08,3.08,0,0,1-2.2-.92,3.11,3.11,0,0,1,0-4.41L82.71,15a3.12,3.12,0,0,1,4.41,4.41L78.49,28A3.12,3.12,0,0,1,76.28,28.92Z"/><path d="M17.15,88a3.06,3.06,0,0,1-2.2-.92,3.11,3.11,0,0,1,0-4.41l8.63-8.63A3.12,3.12,0,0,1,28,78.49l-8.64,8.63A3.08,3.08,0,0,1,17.15,88Z"/><path d="M15.33,54.16H3.12a3.12,3.12,0,1,1,0-6.24H15.33a3.12,3.12,0,1,1,0,6.24Z"/><path d="M25.79,28.92A3.14,3.14,0,0,1,23.58,28L15,19.36A3.12,3.12,0,0,1,19.36,15L28,23.59a3.13,3.13,0,0,1-2.21,5.33Z"/><path d="M39.17,73.8A25.67,25.67,0,1,1,74.9,41.56l-5.8,2.31a19.43,19.43,0,1,0-27,24.4Z"/></g></g></svg>