<svg xmlns="http://www.w3.org/2000/svg" viewBox="0 0 142.1 103.11"><title>Asset 10</title><g id="Layer_2" data-name="Layer 2"><g id="Vrstva_1" data-name="Vrstva 1"><path d="M26.75,78.57a3.12,3.12,0,0,1-3.08-2.66A35.92,35.92,0,0,1,66.23,35.35,35.66,35.66,0,0,1,89.07,50.64a3.12,3.12,0,1,1-5.19,3.47,29.65,29.65,0,0,0-41.15-8.22A29.83,29.83,0,0,0,29.84,75a3.12,3.12,0,0,1-2.62,3.55Z"/><path d="M94.84,103.11H19.63a19.64,19.64,0,0,1,0-39.27,19.46,19.46,0,0,1,8.14,1.77,3.12,3.12,0,0,1-2.59,5.68,13.39,13.39,0,1,0-5.55,25.57H94.84A20.76,20.76,0,1,0,77.62,64.5,3.13,3.13,0,0,1,72.44,61a27,27,0,1,1,22.4,42.11Z"/><path d="M116.43,69a3.12,3.12,0,0,1-.67-6.17,28.27,28.27,0,0,0,8.86-3.62,28.93,28.93,0,0,0,2.72-1.92A34.48,34.48,0,0,1,97.73,9.73a28.52,28.52,0,0,0-2.92,1.59A28.1,28.1,0,0,0,83,44.22a3.12,3.12,0,1,1-5.92,2A34.45,34.45,0,0,1,103.75,1.34L111.38,0l-4.57,6.25a28.2,28.2,0,0,0,27.65,44.43l7.64-1.34-4.58,6.26A34.5,34.5,0,0,1,117.1,68.92,3.14,3.14,0,0,1,116.43,69Z"/></g></g></svg>