<?xml version="1.0" encoding="utf-8"?>
<!-- Generator: Adobe Illustrator 23.0.1, SVG Export Plug-In . SVG Version: 6.00 Build 0)  -->
<svg version="1.1" id="Layer_1" xmlns="http://www.w3.org/2000/svg" xmlns:xlink="http://www.w3.org/1999/xlink" x="0px" y="0px"
	 viewBox="0 0 132 132" style="enable-background:new 0 0 132 132;" xml:space="preserve">
<g>
	<g id="Vrstva_1">
		<path d="M29.9,75.1c-1.4,0-2.6-1-2.8-2.4C24,52.1,38.1,33,58.6,30c14.4-2.2,28.7,4.2,36.8,16.3c0.9,1.3,0.5,3.1-0.8,4
			s-3.1,0.5-4-0.8c-9.8-14.6-29.6-18.5-44.2-8.7c-10.2,6.9-15.6,19-13.8,31.1c0.2,1.5-0.8,3-2.3,3.3c0,0-0.1,0-0.1,0
			C30.1,75.1,30,75.1,29.9,75.1z"/>
		<path d="M101.9,101H22.3C11.1,101,2,91.9,2,80.7s9.1-20.3,20.3-20.3c2.9,0,5.8,0.6,8.4,1.8c1.5,0.5,2.2,2.2,1.7,3.6
			c-0.5,1.5-2.2,2.2-3.6,1.7c-0.1-0.1-0.3-0.1-0.4-0.2c-7.3-3.3-16-0.1-19.4,7.3C5.7,82,8.9,90.7,16.3,94c1.9,0.9,3.9,1.3,6,1.3
			h79.6c12.4,0,22.4-10,22.4-22.4s-10-22.4-22.4-22.4c-7.5,0-14.4,3.7-18.6,9.9c-0.9,1.3-2.6,1.7-4,0.8s-1.7-2.6-0.8-4l0,0
			c8.7-12.9,26.2-16.3,39-7.6s16.3,26.2,7.6,39C120,96.4,111.3,101,101.9,101z"/>
	</g>
</g>
</svg>
