<svg xmlns="http://www.w3.org/2000/svg" viewBox="0 0 131.97 131.64"><title>Asset 14</title><g id="Layer_2" data-name="Layer 2"><g id="Vrstva_1" data-name="Vrstva 1"><path d="M28.82,47.23a3.12,3.12,0,0,1-3.08-2.67A38.79,38.79,0,0,1,96.37,17.27a3.13,3.13,0,0,1-5.2,3.47,32.53,32.53,0,0,0-45.12-9A32.68,32.68,0,0,0,31.91,43.64a3.11,3.11,0,0,1-2.62,3.55A3.73,3.73,0,0,1,28.82,47.23Z"/><path d="M102.87,73.91H21.08a21.08,21.08,0,1,1,0-42.15,20.81,20.81,0,0,1,8.73,1.89,3.12,3.12,0,1,1-2.59,5.68,14.83,14.83,0,1,0-6.14,28.34h81.79A22.86,22.86,0,1,0,83.92,32a3.13,3.13,0,0,1-5.18-3.5,29.1,29.1,0,1,1,24.13,45.37Z"/><path d="M60.51,105.63a2.89,2.89,0,0,1-.82-.11,3.1,3.1,0,0,1-2.19-3.83l3.68-13.55a3.12,3.12,0,0,1,6,1.64l-3.69,13.55A3.12,3.12,0,0,1,60.51,105.63Z"/><path d="M53.44,131.64a3,3,0,0,1-.84-.12,3.13,3.13,0,0,1-2.18-3.84l3.69-13.32a3.12,3.12,0,1,1,6,1.66l-3.69,13.32A3.12,3.12,0,0,1,53.44,131.64Z"/><path d="M84.11,111.86a3,3,0,0,1-.82-.12,3.11,3.11,0,0,1-2.19-3.82l5.38-19.78a3.12,3.12,0,1,1,6,1.64l-5.38,19.77A3.12,3.12,0,0,1,84.11,111.86Z"/><path d="M33.52,111.86a2.91,2.91,0,0,1-.82-.12,3.1,3.1,0,0,1-2.19-3.82l5.38-19.78a3.12,3.12,0,1,1,6,1.64l-5.38,19.77A3.13,3.13,0,0,1,33.52,111.86Z"/></g></g></svg>