<?xml version="1.0" encoding="utf-8"?>
<!-- Generator: Adobe Illustrator 23.0.1, SVG Export Plug-In . SVG Version: 6.00 Build 0)  -->
<svg version="1.1" id="Layer_1" xmlns="http://www.w3.org/2000/svg" xmlns:xlink="http://www.w3.org/1999/xlink" x="0px" y="0px"
	 viewBox="0 0 132 132" style="enable-background:new 0 0 132 132;" xml:space="preserve">
<g>
	<g id="Vrstva_1">
		<path d="M105.8,69.1H8c-1.6,0-2.9-1.3-2.9-2.9c0-1.6,1.3-2.9,2.9-2.9h97.8c1.6,0,2.9,1.3,2.9,2.9
			C108.7,67.8,107.4,69.1,105.8,69.1C105.8,69.1,105.8,69.1,105.8,69.1z"/>
		<path d="M124.1,54.1H26.2c-1.6,0-2.9-1.3-2.9-2.9c0-1.6,1.3-2.9,2.9-2.9l0,0h97.8c1.6,0,2.9,1.3,2.9,2.9
			C127,52.8,125.7,54.1,124.1,54.1z"/>
		<path d="M116.3,84.1H18.4c-1.6,0-2.9-1.3-2.9-2.9c0-1.6,1.3-2.9,2.9-2.9h97.8c1.6,0,2.9,1.3,2.9,2.9
			C119.2,82.8,117.9,84.1,116.3,84.1z"/>
		<path d="M99.9,99.1H34.7c-1.6,0-2.9-1.3-2.9-2.9c0-1.6,1.3-2.9,2.9-2.9h65.2c1.6,0,2.9,1.3,2.9,2.9
			C102.9,97.8,101.6,99.1,99.9,99.1z"/>
		<path d="M99.9,39.1H34.7C33.1,39,31.9,37.6,32,36c0.1-1.5,1.3-2.7,2.8-2.8h65.2c1.6,0.1,2.9,1.5,2.8,3.1
			C102.6,37.8,101.4,39,99.9,39.1z"/>
	</g>
</g>
</svg>
